# xmcd
#
# Track frame offsets:
#	150
#	13723
#	30411
#	47325
#	61814
#	78286
#	98880
#	116163
#	133008
#	149005
#	164263
#	180548
#
# Disc length: 2577 seconds
#
# Revision: 1
# Processed by: cddbd v1.5.2PL0 Copyright (c) Steve Scherf et al.
# Submitted via: audiograbber 1.83.01
#
DISCID=980a0f0c
DTITLE=The McClymonts - Wrapped Up Good
DYEAR=2010
DGENRE=Country
TTITLE0=Kick It Up
TTITLE1=Wrapped Up Good
TTITLE2=He Used To Love Me
TTITLE3=Boy Who Cried Love
TTITLE4=Take It Back
TTITLE5=Rock The Boat
TTITLE6=I'm Not Done With You Just Yet
TTITLE7=A Woman Is A Flame
TTITLE8=Hearts On Fire
TTITLE9=If You're Gonna Love me
TTITLE10=I Could Be A Cowboy
TTITLE11=Cannonball
EXTD=YEAR: 2010
EXTT0=
EXTT1=
EXTT2=
EXTT3=
EXTT4=
EXTT5=
EXTT6=
EXTT7=
EXTT8=
EXTT9=
EXTT10=
EXTT11=
PLAYORDER=
